# xmcd CD database file
#
# Track frame offsets:
#	150
#	16470
#	35567
#	54710
#	75217
#	90875
#	111480
#	124852
#	145505
#	162841
#	180300
#	200760
#	234070
#
# Disc length: 3517 seconds
#
# Revision: 1
# Processed by: cddbd v1.5.2PL0 Copyright (c) Steve Scherf et al.
# Submitted via: CDex 1.51
#
DISCID=990dbb0d
DTITLE=Pascale Picard - Me, Myself and Us
DYEAR=1900
DGENRE=
TTITLE0=Thinking of it
TTITLE1=gate 22
TTITLE2=Smilin'
TTITLE3=unconscious liars
TTITLE4=that is the matter
TTITLE5=annoying
TTITLE6=let's have a drink
TTITLE7=sorry
TTITLE8=a while
TTITLE9=when at the end of the road
TTITLE10=useless
TTITLE11=half asleep
TTITLE12=Piste De Données
EXTD=
EXTT0=
EXTT1=
EXTT2=
EXTT3=
EXTT4=
EXTT5=
EXTT6=
EXTT7=
EXTT8=
EXTT9=
EXTT10=
EXTT11=
EXTT12=
PLAYORDER=
